<?xml version="1.0" standalone="no"?>
<!DOCTYPE svg PUBLIC "-//W3C//DTD SVG 20010904//EN"
 "http://www.w3.org/TR/2001/REC-SVG-20010904/DTD/svg10.dtd">
<svg version="1.0" xmlns="http://www.w3.org/2000/svg"
 width="700.000000pt" height="700.000000pt" viewBox="0 0 700.000000 700.000000"
 preserveAspectRatio="xMidYMid meet">
<metadata>
Created by potrace 1.11, written by Peter Selinger 2001-2013
</metadata>
<g transform="translate(0.000000,700.000000) scale(0.100000,-0.100000)"
fill="#000000" stroke="none">
<path d="M0 3500 l0 -3500 3500 0 3500 0 0 3500 0 3500 -3500 0 -3500 0 0
-3500z m3745 2325 c652 -94 1208 -563 1414 -1192 71 -218 101 -460 83 -673
-23 -255 -71 -430 -183 -655 -90 -182 -176 -302 -324 -451 -127 -128 -219
-201 -352 -280 -81 -48 -98 -64 -68 -64 30 0 91 -39 132 -83 108 -117 86 -315
-43 -397 l-46 -29 30 -15 c36 -18 75 -64 104 -120 31 -58 31 -174 0 -232 -32
-63 -65 -97 -124 -129 l-53 -30 -272 -3 -273 -3 0 -38 c0 -95 -73 -204 -165
-247 -70 -33 -170 -33 -240 0 -92 42 -165 154 -165 252 l0 34 -250 0 c-289 0
-324 7 -397 82 -58 60 -83 118 -83 198 0 86 30 150 100 213 28 26 47 47 41 47
-24 0 -100 83 -121 132 -31 72 -25 176 13 241 33 56 89 104 140 119 33 10 51
28 27 28 -15 0 -158 88 -240 149 -105 76 -302 278 -383 391 -83 117 -195 341
-237 475 -178 564 -73 1159 285 1620 273 351 680 591 1120 659 120 19 404 19
530 1z m2030 -714 c0 -21 -28 -40 -205 -142 -113 -65 -213 -118 -222 -119 -21
0 -40 31 -29 48 4 6 97 64 207 127 208 120 249 134 249 86z m-4385 -208 c181
-104 205 -121 205 -143 0 -48 -36 -36 -242 83 -108 63 -202 121 -207 129 -13
21 -1 48 21 48 10 0 110 -53 223 -117z m4617 -749 c3 -9 2 -24 -4 -33 -9 -14
-41 -16 -239 -19 -126 -1 -239 0 -251 3 -22 5 -32 42 -16 58 3 4 118 7 255 7
221 0 249 -2 255 -16z m-4487 -73 c7 -15 6 -23 -6 -35 -14 -14 -48 -16 -256
-14 -209 3 -242 5 -251 19 -6 9 -7 24 -4 33 6 14 34 16 256 16 237 0 251 -1
261 -19z m110 -692 c10 -18 -6 -37 -161 -187 -173 -168 -200 -186 -223 -148
-10 16 11 39 164 187 96 93 183 169 192 169 10 0 22 -9 28 -21z m3910 -147
c150 -145 172 -170 166 -190 -15 -45 -45 -26 -215 140 -91 90 -168 169 -169
176 -6 22 6 42 26 42 11 0 94 -73 192 -168z"/>
<path d="M3270 5763 c-19 -2 -86 -16 -149 -29 -978 -217 -1553 -1225 -1241
-2174 39 -119 112 -276 177 -377 164 -259 412 -480 689 -614 l102 -49 196 0
196 0 0 465 0 465 -195 0 c-171 0 -201 2 -249 21 -73 27 -148 96 -183 167 -24
49 -28 69 -28 142 0 73 4 93 28 142 35 72 110 140 185 168 47 18 73 21 152 18
85 -3 102 -7 158 -38 78 -41 144 -113 173 -188 19 -48 23 -82 27 -209 l4 -153
168 0 168 0 4 158 c3 148 5 161 32 219 34 74 113 153 183 185 67 29 200 36
276 14 82 -24 154 -86 197 -170 31 -61 35 -77 35 -145 0 -67 -5 -86 -33 -144
-36 -72 -87 -123 -161 -159 -42 -21 -62 -23 -253 -26 l-208 -3 0 -465 0 -464
201 0 201 0 102 49 c182 88 333 199 482 352 636 658 626 1706 -24 2357 -233
233 -503 380 -838 458 -107 25 -140 28 -329 30 -115 1 -226 0 -245 -3z"/>
<path d="M2810 4019 c-55 -25 -105 -71 -133 -124 -17 -31 -22 -58 -22 -115 0
-85 20 -133 77 -187 67 -65 101 -73 317 -73 l193 0 -4 148 c-3 127 -7 154 -27
200 -29 65 -103 134 -168 156 -67 23 -177 21 -233 -5z"/>
<path d="M3930 4031 c-75 -23 -150 -89 -184 -161 -17 -38 -21 -68 -24 -197
l-4 -153 194 0 c166 0 199 3 234 19 102 46 158 133 158 241 -1 75 -18 121 -65
175 -51 58 -118 85 -209 84 -41 0 -86 -4 -100 -8z"/>
<path d="M3310 2985 l0 -465 170 0 170 0 0 465 0 465 -170 0 -170 0 0 -465z"/>
<path d="M2660 2434 c-157 -68 -162 -286 -8 -365 37 -19 66 -19 852 -17 l814
3 43 30 c123 87 113 268 -20 337 l-53 28 -797 0 c-688 -1 -801 -3 -831 -16z"/>
<path d="M2654 1935 c-123 -61 -154 -221 -63 -320 74 -80 24 -76 919 -73 l795
3 38 23 c50 32 83 77 98 135 23 85 -17 178 -98 229 l-38 23 -800 3 -800 2 -51
-25z"/>
<path d="M3270 1435 c0 -111 99 -205 215 -205 116 0 215 94 215 205 l0 35
-215 0 -215 0 0 -35z"/>
</g>
</svg>
