<?xml version="1.0" encoding="iso-8859-1"?>
<!-- Generator: Adobe Illustrator 19.0.0, SVG Export Plug-In . SVG Version: 6.00 Build 0)  -->
<svg xmlns="http://www.w3.org/2000/svg" xmlns:xlink="http://www.w3.org/1999/xlink" version="1.1" id="Layer_1" x="0px" y="0px" viewBox="0 0 504.829 504.829" style="enable-background:new 0 0 504.829 504.829;" xml:space="preserve" width="512" height="512">
<g>
	<path d="M195.426,345.18c0,10.083,2.557,17.452,7.816,22.526c1.83,1.765,3.87,3.134,6.084,4.208l-4.87,17.855   c-1.09,3.997,1.266,8.12,5.263,9.209c0.661,0.18,1.324,0.266,1.978,0.266c3.298,0,6.322-2.193,7.231-5.528l5.029-18.438   c2.097,0.138,4.266,0.196,6.504,0.196c3.551,0,7.268-0.133,11.111-0.271c1.754-0.063,3.538-0.125,5.34-0.177v7.703   c0,4.142,3.358,7.5,7.5,7.5c4.143,0,7.5-3.358,7.5-7.5v-7.703c1.802,0.053,3.586,0.114,5.34,0.177   c6.527,0.235,12.678,0.446,18.285,0.023l5.043,18.491c0.909,3.335,3.933,5.528,7.23,5.528c0.653,0,1.317-0.086,1.979-0.266   c3.996-1.09,6.352-5.213,5.262-9.209l-4.948-18.144c1.984-1.028,3.816-2.314,5.48-3.919c5.26-5.074,7.816-12.442,7.816-22.526   c0-32.525-26.461-58.986-58.986-58.986S195.426,312.655,195.426,345.18z M298.399,345.18c0,5.05-0.852,8.713-2.529,10.926   l-2.548-9.341c-1.089-3.997-5.213-6.353-9.209-5.263c-3.996,1.09-6.352,5.213-5.262,9.209l2.65,9.716   c-4.105,0.124-8.769-0.038-13.711-0.216c-1.926-0.069-3.886-0.137-5.878-0.194v-11.28c0-4.142-3.357-7.5-7.5-7.5   c-4.142,0-7.5,3.358-7.5,7.5v11.28c-1.992,0.056-3.953,0.125-5.878,0.194c-4.669,0.168-9.097,0.326-13.033,0.239l2.656-9.739   c1.09-3.996-1.266-8.119-5.263-9.209c-3.998-1.091-8.119,1.267-9.209,5.263l-2.71,9.938c-2.018-2.115-3.049-5.979-3.049-11.523   c0-6.479,1.419-12.629,3.946-18.173c4.792,1.317,10.181,1.69,16.054,1.69c3.546,0,7.268-0.134,11.136-0.273   c4.156-0.149,8.453-0.304,12.854-0.304c4.401,0,8.698,0.154,12.854,0.304c10.274,0.369,19.5,0.697,27.184-1.415   C296.979,332.552,298.399,338.702,298.399,345.18z M267.809,313.434c-4.288-0.154-8.722-0.313-13.393-0.313   c-4.67,0-9.104,0.159-13.393,0.313c-6.157,0.221-12.121,0.434-17.033,0.023c7.907-7.586,18.626-12.263,30.423-12.263   c11.797,0,22.515,4.677,30.423,12.263C279.924,313.868,273.964,313.655,267.809,313.434z"/>
	<path d="M166.435,289.203c0.992,3.225,3.96,5.296,7.166,5.296c0.73,0,1.474-0.107,2.208-0.333l39.642-12.197   c2.514-0.773,4.439-2.808,5.073-5.36c0.634-2.553-0.116-5.251-1.976-7.111l-26.682-26.682c-2.929-2.929-7.678-2.929-10.606,0   c-2.929,2.929-2.929,7.678,0,10.606l17.874,17.874l-27.736,8.534C167.439,281.047,165.218,285.244,166.435,289.203z"/>
	<path d="M327.565,242.814c-2.929-2.929-7.677-2.93-10.607,0l-26.683,26.682c-1.859,1.86-2.609,4.558-1.976,7.111   c0.635,2.553,2.56,4.587,5.073,5.36l39.643,12.197c0.735,0.226,1.478,0.333,2.209,0.333c3.205,0,6.174-2.072,7.165-5.296   c1.219-3.959-1.004-8.156-4.962-9.374l-27.737-8.534l17.875-17.874C330.493,250.492,330.493,245.743,327.565,242.814z"/>
	<path d="M414.227,174.467V159.82c0-42.683-16.623-82.818-46.807-113.013c-22.712-22.711-51.298-37.899-82.66-43.921   C274.854,0.971,264.642,0,254.406,0c-88.12,0-159.81,71.695-159.81,159.82v14.633c-1.188-0.013-2.153-0.02-2.682-0.02   c-31.656,0-57.41,25.75-57.41,57.4c0,31.656,25.754,57.41,57.41,57.41c1.579,0,3.145-0.082,4.699-0.208   c2.59,16.25,7.671,31.915,15.23,46.794c1.876,3.693,6.391,5.167,10.083,3.29c3.693-1.876,5.166-6.391,3.29-10.083   c-10.365-20.403-15.62-42.438-15.62-65.496v-41.622c0-0.053,0.002-0.107,0-0.16v-0.247c16.039-6.224,31.124-16.692,42.929-29.901   c9.496-10.626,16.062-22.218,19.243-33.735c19.462,16.615,66.137,47.603,153.891,60.293c4.103,0.592,7.903-2.25,8.496-6.35   c0.593-4.099-2.25-7.903-6.35-8.496c-59.457-8.598-98.601-26.054-120.969-39.184c-24.166-14.185-34.466-26.498-34.55-26.6   c-2.003-2.463-5.34-3.4-8.33-2.337c-2.992,1.062-4.99,3.893-4.99,7.067c0,23.075-21.765,50.037-49.37,62.938V159.82   c0-79.854,64.961-144.82,144.81-144.82c9.281,0,18.536,0.879,27.516,2.615c28.413,5.456,54.311,19.217,74.89,39.797   c27.352,27.362,42.415,63.731,42.415,102.408v48.866c-14.981-0.196-29.641-0.914-43.673-2.152c-4.14-0.361-7.767,2.686-8.13,6.813   c-0.364,4.126,2.686,7.766,6.812,8.13c14.465,1.276,29.568,2.015,44.991,2.211v39.852c0,33.46-11.678,66.093-32.883,91.886   c-20.221,24.597-48.151,41.953-78.939,49.128c-8.812-5.838-20.339-9.325-32.993-9.325c-12.668,0-24.205,3.495-33.021,9.344   c-33.347-7.774-62.872-27.183-83.421-54.917c-2.465-3.328-7.163-4.027-10.491-1.562s-4.027,7.163-1.562,10.491   c20.841,28.13,50.064,48.489,83.243,58.259c-1.267,2.025-2.319,4.15-3.115,6.367c-17.54,0.417-31.678,14.813-31.678,32.451   c0,17.898,14.562,32.46,32.46,32.46c4.518,0,8.952-0.945,13.03-2.734c7.195,11.909,20.159,19.441,34.553,19.441   c14.395,0,27.358-7.532,34.553-19.441c4.078,1.789,8.513,2.734,13.03,2.734c17.898,0,32.46-14.562,32.46-32.46   c0-17.637-14.139-32.034-31.678-32.451c-0.799-2.224-1.855-4.355-3.127-6.386c30.471-8.999,57.922-27.109,78.281-51.874   c17.928-21.807,29.677-48.043,34.199-75.722c0.262,0.004,0.522,0.014,0.784,0.014c31.656,0,57.41-25.754,57.41-57.41   C470.324,200.623,445.277,175.169,414.227,174.467z M91.914,274.244c-23.385,0-42.41-19.025-42.41-42.41   c0-23.379,19.025-42.4,42.41-42.4c0.446,0,1.424,0.007,2.682,0.021v23.988c-9.971-0.156-22.365,3.349-28.256,16.9   c-1.652,3.798,0.089,8.217,3.888,9.868c0.974,0.423,1.988,0.624,2.986,0.624c2.896,0,5.654-1.687,6.882-4.512   c1.254-2.883,3.74-6.817,10.827-7.688c1.284-0.157,2.53-0.188,3.673-0.151v35.055c0,3.552,0.125,7.079,0.351,10.585   C93.944,274.195,92.935,274.244,91.914,274.244z M301.995,438.202c9.628,0,17.46,7.833,17.46,17.46s-7.832,17.46-17.46,17.46   c-4.177,0-8.221-1.503-11.388-4.234c-1.903-1.641-4.499-2.22-6.921-1.542c-2.419,0.678-4.339,2.522-5.112,4.913   c-3.401,10.509-13.111,17.569-24.162,17.569s-20.761-7.061-24.163-17.569c-0.773-2.391-2.693-4.235-5.112-4.913   c-0.667-0.187-1.347-0.278-2.023-0.278c-1.776,0-3.519,0.631-4.897,1.819c-3.167,2.73-7.211,4.234-11.388,4.234   c-9.627,0-17.46-7.833-17.46-17.46s7.833-17.46,17.46-17.46c1.184,0,2.368,0.119,3.519,0.354c2.07,0.423,4.222-0.048,5.927-1.295   c1.705-1.247,2.805-3.156,3.029-5.256c1.284-12.007,17.033-21.775,35.108-21.775s33.824,9.768,35.108,21.775   c0.224,2.1,1.324,4.009,3.029,5.256c1.704,1.247,3.855,1.717,5.926,1.295C299.627,438.321,300.811,438.202,301.995,438.202z    M413.864,274.219c0.239-3.547,0.363-7.109,0.363-10.679v-35.057c1.036-0.033,2.159-0.01,3.315,0.112   c7.352,0.775,9.905,4.782,11.187,7.729c1.229,2.825,3.986,4.511,6.882,4.511c0.998,0,2.013-0.201,2.986-0.624   c3.799-1.652,5.539-6.07,3.888-9.869c-5.892-13.552-18.286-17.055-28.258-16.899v-23.977c22.779,0.698,41.098,19.427,41.098,42.367   C455.324,254.9,436.811,273.711,413.864,274.219z"/>
</g>















</svg>
