<?xml version="1.0" encoding="iso-8859-1"?>
<!-- Generator: Adobe Illustrator 19.0.0, SVG Export Plug-In . SVG Version: 6.00 Build 0)  -->
<svg xmlns="http://www.w3.org/2000/svg" xmlns:xlink="http://www.w3.org/1999/xlink" version="1.1" id="Layer_1" x="0px" y="0px" viewBox="0 0 504.999 504.999" style="enable-background:new 0 0 504.999 504.999;" xml:space="preserve" width="512" height="512">
<path d="M462.244,166.831c-7.18-6.443-16.436-9.661-26.069-9.062c-9.638,0.601-18.431,4.948-24.761,12.241l-37.16,42.825  l33.965-103.612c1.282-3.899,1.932-7.965,1.932-12.083c0-15.498-9.212-29.461-23.467-35.573c-9.856-4.23-21.137-4.156-30.946,0.201  c-9.82,4.361-17.447,12.689-20.924,22.849l-23.277,67.988l5.992-108.741c0.002-0.024,0.005-0.092,0.006-0.117  c0.034-0.747,0.064-1.478,0.064-2.191c0-22.371-17.54-40.61-39.935-41.523c-22.529-0.902-41.906,16.687-43.17,39.224l-5.02,89.711  L218.2,55.634c-2.983-19.322-19.325-33.347-38.855-33.347c-2.546,0-5.137,0.255-7.733,0.763  c-20.182,4.044-33.662,22.519-31.354,42.97l4.531,40.327c0.462,4.117,4.175,7.075,8.291,6.616c4.116-0.462,7.078-4.174,6.616-8.291  l-4.532-40.33c-1.404-12.447,7.116-24.124,19.364-26.578c1.617-0.316,3.237-0.477,4.817-0.477c11.883,0,22.214,8.872,24.03,20.631  l17.603,114.502c0.842,5.48,5.468,9.283,11.009,9.009c5.549-0.261,9.812-4.474,10.137-10.038l7.347-131.296  c0.808-14.406,13.214-25.65,27.586-25.075c14.322,0.584,25.542,12.239,25.542,26.535c0,0.493-0.025,0.997-0.047,1.483l-6.7,121.583  c-0.369,6.662,4.116,12.426,10.666,13.707c6.54,1.28,12.871-2.37,15.041-8.688l27.446-80.167  c2.161-6.315,6.714-11.286,12.819-13.997c6.098-2.707,12.824-2.751,18.947-0.125c8.734,3.745,14.379,12.297,14.379,21.788  c0,2.524-0.397,5.014-1.184,7.405l-34.513,105.286c-2.203,6.705,0.54,13.821,6.672,17.306c6.137,3.488,13.658,2.205,18.299-3.128  l38.318-44.167c3.672-4.23,8.773-6.752,14.365-7.101c5.581-0.349,10.954,1.517,15.125,5.261c4.37,3.912,6.877,9.533,6.877,15.423  c0,4.078-1.188,8.025-3.442,11.422l-60.8,91.905c-20.641,31.2-36.084,65.359-45.902,101.538c-0.861,3.188-2.021,28.016-3.045,54.639  H174.462l-1.578-60.637c-0.006-0.235-0.023-0.47-0.052-0.704c-1.991-16.491-10.987-31.208-24.688-40.381  c-7.578-5.061-13.911-12.088-18.311-20.32c-15.804-29.586-39.169-54.702-67.569-72.63l-4.027-2.542  c-6.126-3.867-10.31-9.901-11.78-16.992c-1.469-7.086-0.03-14.283,4.08-20.304l0.492-0.731c4.232-6.215,10.627-10.256,18.006-11.38  c7.331-1.116,14.571,0.81,20.384,5.422l7.165,5.687c12.532,9.947,26.474,21.013,38.533,30.55c0.216,0.185,0.442,0.361,0.683,0.524  c0.026,0.018,3.082,2.056,4.68,2.776c11.039,5.808,25.653,8.907,41.012,12.161c33.313,7.058,71.072,15.058,85.796,51.972  c1.171,2.936,3.988,4.723,6.968,4.723c0.925,0,1.865-0.172,2.776-0.536c3.848-1.535,5.723-5.897,4.188-9.745  c-17.696-44.367-61.457-53.639-96.619-61.088c-5.751-1.219-11.376-2.417-16.657-3.722c4.215-4.849,6.261-11.251,5.499-18.019  l-10.589-94.238c-0.463-4.117-4.185-7.078-8.291-6.616c-4.116,0.462-7.078,4.174-6.616,8.291l10.589,94.24  c0.596,5.291-3.203,7.832-4.382,8.485c-1.175,0.651-5.335,2.519-9.505-0.793c-12.113-9.58-26.142-20.714-38.741-30.714l-7.166-5.688  c-8.983-7.128-20.633-10.227-31.966-8.501c-11.378,1.732-21.638,8.208-28.168,17.799l-0.487,0.724  c-6.399,9.374-8.656,20.655-6.353,31.766c2.304,11.114,8.86,20.572,18.46,26.631l4.027,2.542  c26.207,16.543,47.766,39.716,62.347,67.015c5.562,10.403,13.588,19.299,23.203,25.72c9.965,6.672,16.545,17.363,18.093,29.374  l2.723,104.646c0.106,4.064,3.432,7.305,7.498,7.305h101.178c4.143,0,7.5-3.358,7.5-7.5s-3.357-7.5-7.5-7.5h-93.871l-0.574-22.071  h170.511c-0.276,7.675-0.534,15.192-0.764,22.071h-45.3c-4.143,0-7.5,3.358-7.5,7.5s3.357,7.5,7.5,7.5h52.557  c4.047,0,7.364-3.21,7.496-7.255c0.357-10.949,0.817-24.153,1.308-37.224c0-0.031,0.005-0.061,0.005-0.092  c0-0.004-0.001-0.009-0.001-0.013c1.033-27.501,2.201-54.388,2.839-58.421c9.398-34.542,24.16-67.165,43.875-96.966l60.794-91.896  c3.885-5.854,5.938-12.669,5.938-19.707C474.11,183.274,469.783,173.579,462.244,166.831z"/>















</svg>
