<?xml version="1.0" encoding="utf-8"?>
<!-- Generator: Adobe Illustrator 23.0.2, SVG Export Plug-In . SVG Version: 6.00 Build 0)  -->
<svg version="1.1" xmlns="http://www.w3.org/2000/svg" xmlns:xlink="http://www.w3.org/1999/xlink" x="0px" y="0px" width="512px"
	 height="512px" viewBox="0 0 512 512" style="enable-background:new 0 0 512 512;" xml:space="preserve">
<g id="Capa_1">
	<g>
		<g>
			<path d="M189.3,3.8c0-0.9,0.1-1.8,0.3-2.7c-27.2,5.2-47.8,29.2-47.8,57.9v73c2.8,0.6,5.1,3.3,3.7,6.5c2.2,0.1,4.3,0,5.1-0.4
				c1.6-0.8,2.9-2.5,4.3-3.7c0.6-0.5,1.2-0.9,1.9-1.3V59c0-22.5,17-41.1,38.8-43.7C191.8,12.8,189.3,8.5,189.3,3.8z"/>
			<path d="M139.2,323.1v12.3c-13,2.4-24,11.3-28.5,23.6c-1.2,3.3-2,6.7-2.2,10.2l-5.5,70.1c-0.4,5.3,1.4,10.5,5,14.4
				c3.6,3.9,8.7,6.1,14,6.1h9.3c4.1,0,7.5-3.4,7.5-7.5c0-4.1-3.4-7.5-7.5-7.5H122c-1.1,0-2.2-0.5-3-1.3c-0.8-0.8-1.2-1.9-1.1-3.1
				l5.5-70.1c0.2-2.1,0.6-4.2,1.3-6.2c3.2-8.6,11.7-14.4,21.2-14.4l1.2,0c0.1,0,0.1,0,0.2,0c9.3,0,17.5,5.3,20.9,13.4
				c1,2.3,1.6,4.7,1.8,7.2l5.5,70.1c0.1,1.1-0.3,2.2-1.1,3.1c-0.8,0.8-1.9,1.3-3,1.3h-9.3c-4.1,0-7.5,3.4-7.5,7.5s3.4,7.5,7.5,7.5
				h9.3c5.3,0,10.4-2.2,14-6.1c3.6-3.9,5.4-9.1,5-14.4l-5.5-70.1c-0.3-4.1-1.3-8.1-2.9-11.9c-4.9-11.7-15.5-19.8-27.9-22v-7.5
				C149.2,326.5,144.2,324.9,139.2,323.1z"/>
			<path d="M482.7,485.8l-22.6-132.6c-2.4-14.3-12.6-25.8-26.5-30l-34-10.2c-8.8,3-17.9,5-27,5.7c-1,5-4.9,8.6-9.9,10.7
				c-1.6,0.7-3.3,1.3-4.9,1.9v29c-17.9,3.5-31.4,19.2-31.4,38.1c0,21.4,17.4,38.8,38.8,38.8c21.4,0,38.8-17.4,38.8-38.8
				c0-18.8-13.4-34.5-31.2-38v-39.8l56.5,17c8.4,2.5,14.5,9.5,16,18.1l22.7,132.6c0.4,2.2-0.2,4.3-1.6,6.1c-1.4,1.7-3.5,2.6-5.7,2.6
				H51.4c-2.2,0-4.3-0.9-5.7-2.6c-1.4-1.7-2-3.9-1.6-6.1l7.5-43.8c0.7-4.1-2-8-6.1-8.7c-4.1-0.7-8,2-8.7,6.1l-7.5,43.8
				c-1.1,6.5,0.7,13.2,5,18.2c4.3,5.1,10.5,8,17.2,8h409.2c6.6,0,12.9-2.9,17.2-8C482,499,483.8,492.3,482.7,485.8z M389,398.4
				c0,13.1-10.7,23.8-23.8,23.8s-23.8-10.7-23.8-23.8c0-13.1,10.7-23.8,23.8-23.8S389,385.3,389,398.4z"/>
			<path d="M48.9,415.7c4.1,0.7,8-2,8.7-6.1l9.2-53.8c1.5-8.6,7.6-15.6,16-18.1l52.7-15.9c-3.4-1.4-6.9-2.8-10.3-4.5
				c-2.6-1.3-4.6-3.6-5.7-6.4l-41.1,12.4c-13.9,4.2-24,15.7-26.5,30L42.7,407C42,411.1,44.8,415,48.9,415.7z"/>
			<path d="M161.6,260.2c-1.7,1.5-3.2,3.1-4.7,4.7c1.1-0.9,2.3-1.9,3.7-3.1c0.6-0.5,1.1-1,1.7-1.5c0,0,0-0.1,0-0.1
				C162.1,260.2,161.8,260.2,161.6,260.2z"/>
			<path d="M228,428.8c0.1,0.2,0.2,0.5,0.3,0.7c7.4,19.3,14.5,38.2,20.7,54.5c1.1,2.9,3.9,4.9,7,4.9s5.9-1.9,7-4.9
				c6.1-16.3,13.3-35.2,20.7-54.5c0.1-0.2,0.2-0.5,0.3-0.7c11.1-28.9,22.6-58.6,31.8-81.9c1.1-2.8,2.2-5.4,3.2-7.9
				c-1.8,0.2-3.6,0.3-5.4,0.4c-3.7,0.3-7.4,0.4-11.1,0.5c-0.8,2.1-1.7,4.2-2.6,6.5c0,0.1-0.1,0.2-0.1,0.3c-0.4,0.9-0.7,1.8-1.1,2.7
				c-0.1,0.2-0.1,0.3-0.2,0.5c-0.4,0.9-0.8,1.9-1.1,2.9c0,0,0,0,0,0.1c-0.4,1-0.8,2.1-1.2,3.2l-7.4-3.1c0,0-0.1,0-0.1,0l-17.7-7.5
				l7.3-5.5c-16-0.5-31.9-1.7-47.9-2.5l10.7,8l-17.7,7.5c0,0-0.1,0-0.1,0L216,356c-0.4-1.1-0.8-2.1-1.2-3.1c0,0,0-0.1,0-0.1
				c-0.4-1-0.8-1.9-1.1-2.8c-0.1-0.2-0.1-0.3-0.2-0.5c-0.4-0.9-0.7-1.8-1.1-2.7c0-0.1,0-0.1-0.1-0.2c-1.1-2.8-2.2-5.5-3.2-8
				c-0.1-0.2-0.1-0.4-0.2-0.6c-0.2-0.6-0.5-1.2-0.7-1.8c-5.6-0.4-11.2-0.9-16.8-1.5c1.5,3.6,3.1,7.7,5,12.3
				C205.5,370.1,217,399.8,228,428.8z M256.1,459.7c-0.2-0.4-0.5-0.9-0.8-1.3c-3.4-9-7.7-20.3-12.4-32.8l7-38.3h12.1l7,38.3
				C264.1,438.8,259.6,450.6,256.1,459.7z M287.8,368.8l2.8,1.2c-2.1,5.5-4.4,11.2-6.7,17.3c-1.5,3.9-3,7.7-4.5,11.6l-3.1-16.7
				L287.8,368.8z M256,355.3l17.3,7.3l-8.4,9.8h-17.8l-8.4-9.8L256,355.3z M224.2,368.8l11.4,13.3l-3.1,16.7
				c-1.5-3.8-3-7.7-4.5-11.6c-2.3-6-4.6-11.8-6.7-17.3L224.2,368.8z"/>
		</g>
	</g>
</g>
<g id="Layer_2">
	<path d="M257.3,351.7c-0.2,0-0.3,0-0.5,0c-0.2,0-0.3,0-0.5,0c-101.1,0-138-27.8-139.5-28.9c-2.4-1.9-3.4-5-2.6-7.9
		c0.8-2.9,3.3-5.1,6.3-5.5c2-0.3,49.9-7.9,49.9-88v-87.8c0-20,16.2-36.2,36.2-36.2H307c20,0,36.2,16.2,36.2,36.2v87.8
		c0,80.8,49.4,87.9,49.9,88c3,0.4,5.5,2.5,6.3,5.5c0.8,2.9-0.2,6-2.6,7.9C395.3,324,358.4,351.7,257.3,351.7z M140,318.2
		c17.9,7.6,54.3,18.5,116.4,18.5c0.2,0,0.3,0,0.5,0c0.2,0,0.3,0,0.5,0c62.1,0,98.5-10.9,116.4-18.5c-4.6-2.4-9.7-5.8-14.8-10.4
		c-25.4-23-30.7-59.7-30.7-86.4v-87.8c0-11.7-9.5-21.2-21.2-21.2H206.7c-11.7,0-21.2,9.5-21.2,21.2v87.8c0,26.7-5.3,63.4-30.7,86.4
		C149.7,312.4,144.6,315.8,140,318.2z"/>
	<path d="M362.6,89.8c-4,0-7.3-3.2-7.5-7.2c-0.2-4.5-0.1-9-0.1-13.4c0.1-9.5,0.2-18.5-2.2-27.2c-0.1-0.3-0.1-0.5-0.2-0.8
		c-1.6-9.4-7.8-17.4-16.7-21.4c-13.5-6-27.9-5.7-43.1-5.4c-3,0.1-6.2,0.1-9.3,0.1c0,0,0,0,0,0c-4.1,0-7.5-3.4-7.5-7.5
		c0-4.1,3.3-7.5,7.5-7.5c3,0,6.1-0.1,9.1-0.1c16.2-0.3,33-0.6,49.6,6.7c13.4,6.1,22.8,18.1,25.3,32.2c3,10.7,2.8,21.1,2.7,31.1
		c-0.1,4.3-0.1,8.4,0.1,12.5c0.2,4.1-3,7.6-7.2,7.8C362.8,89.8,362.7,89.8,362.6,89.8z"/>
	<path d="M253.6,278.9c-5.6,0-11.2-0.7-16.7-1.5c-0.1,0-0.1,0-0.2,0c-21.1-3.5-35.7-16.8-47.3-29.3c0,0-0.1-0.1-0.1-0.1
		c-3.3-3.7-5.9-7.4-8.4-11c-3.6-5.2-6.8-9.8-11.2-12.7c-0.1-0.1-0.2-0.1-0.3-0.2c-15.1-11.1-23.7-27.8-25-48.5
		c-3.3-42.2-2.8-82.9-2-113.7c0-0.2,0-0.3,0-0.5c0.2-2.6,0.4-5.1,0.5-7.9c0.4-8.8,0.8-17.9,5.3-26.8c0-0.1,0.1-0.1,0.1-0.2
		c7.9-14.7,23.6-24.6,40.9-25.9c14-1.5,28.6-1.3,42.7-1.1c4.5,0.1,9.1,0.1,13.5,0.1c4.1,0,7.5,3.4,7.5,7.5c0,4.1-3.4,7.5-7.5,7.5
		c0,0,0,0,0,0c-4.6,0-9.2-0.1-13.7-0.1c-13.7-0.2-27.8-0.4-40.9,1.1c-0.1,0-0.2,0-0.3,0c-12.1,0.9-23.4,7.9-28.9,18
		c-3,6.1-3.3,13.2-3.7,20.7c-0.1,2.7-0.2,5.5-0.5,8.3c-0.8,30.4-1.3,70.6,2,112c0,0,0,0.1,0,0.1c1,16.3,7.4,28.9,18.8,37.3
		c6.7,4.5,10.9,10.6,15,16.5c2.2,3.2,4.5,6.5,7.2,9.6c10.3,11.2,22.1,21.8,38.6,24.6c6.8,1,13.9,1.8,19.8,1c0.1,0,0.3,0,0.4,0
		c9.8-0.9,19-4.5,28.7-8.4c15.1-7.2,28-19.7,41.8-40.3c0.3-0.4,0.6-0.8,0.9-1.1c1.9-1.9,3.7-2.8,4.9-3.4c0.3-0.1,0.5-0.2,0.7-0.3
		c1.2-1.8,2.7-3,3.9-3.9c0.4-0.4,0.8-0.7,1.2-1c7.8-10.6,12.3-22.9,13.2-36.5c1.1-16.9,0.9-33.5,0.7-47.4c-0.1-4.1,3.2-7.6,7.4-7.6
		c0,0,0.1,0,0.1,0c4.1,0,7.4,3.3,7.5,7.4c0.2,14.3,0.4,31.2-0.7,48.7c-1.1,16.8-6.7,31.9-16.5,45c-0.2,0.3-0.4,0.6-0.7,0.8
		c-1,1-1.9,1.7-2.6,2.3c-0.4,0.3-0.9,0.7-1.1,0.9c-0.3,0.6-0.8,1.2-1.3,1.7c-1.9,1.9-3.7,2.8-4.9,3.4c-0.3,0.2-0.6,0.3-0.7,0.4
		c-19.7,29.2-36.5,39.5-47.4,44.7c-0.1,0.1-0.3,0.1-0.4,0.2c-10.3,4.1-20.9,8.4-32.9,9.5C258.5,278.8,256.1,278.9,253.6,278.9z
		 M348.7,218.4C348.7,218.4,348.7,218.4,348.7,218.4C348.7,218.4,348.7,218.4,348.7,218.4z"/>
</g>
</svg>
